<mxfile host="app.diagrams.net">
  <diagram name="Homepage Wireframe" id="homepage">
    <mxGraphModel dx="1434" dy="844" grid="1" gridSize="10" guides="1" tooltips="1" connect="1" arrows="1" fold="1" page="1" pageScale="1" pageWidth="1200" pageHeight="1600" math="0" shadow="0">
      <root>
        <mxCell id="0" />
        <mxCell id="1" parent="0" />

        <!-- Browser Window -->
        <mxCell id="browser" value="" style="rounded=0;whiteSpace=wrap;html=1;fillColor=#f5f5f5;strokeColor=#666666;" vertex="1" parent="1">
          <mxGeometry x="40" y="40" width="1120" height="1520" as="geometry" />
        </mxCell>

        <!-- Header -->
        <mxCell id="header" value="HEADER" style="rounded=0;whiteSpace=wrap;html=1;fillColor=#dae8fc;strokeColor=#6c8ebf;fontStyle=1" vertex="1" parent="1">
          <mxGeometry x="40" y="40" width="1120" height="80" as="geometry" />
        </mxCell>

        <!-- Logo -->
        <mxCell id="logo" value="Indigenous Art Atlas" style="rounded=0;whiteSpace=wrap;html=1;fillColor=#fff2cc;strokeColor=#d6b656;fontStyle=1;fontSize=16;" vertex="1" parent="1">
          <mxGeometry x="60" y="60" width="220" height="40" as="geometry" />
        </mxCell>

        <!-- Navigation -->
        <mxCell id="nav" value="Home | Browse | About | Guidelines | Login | Register" style="rounded=0;whiteSpace=wrap;html=1;fillColor=#e1d5e7;strokeColor=#9673a6;" vertex="1" parent="1">
          <mxGeometry x="680" y="60" width="460" height="40" as="geometry" />
        </mxCell>

        <!-- Hero Section -->
        <mxCell id="hero" value="HERO SECTION" style="rounded=0;whiteSpace=wrap;html=1;fillColor=#d5e8d4;strokeColor=#82b366;fontStyle=1" vertex="1" parent="1">
          <mxGeometry x="40" y="120" width="1120" height="280" as="geometry" />
        </mxCell>

        <!-- Hero Title -->
        <mxCell id="hero-title" value="Discover and Share Indigenous Art Across Australia" style="text;html=1;strokeColor=none;fillColor=none;align=center;verticalAlign=middle;whiteSpace=wrap;rounded=0;fontSize=28;fontStyle=1" vertex="1" parent="1">
          <mxGeometry x="240" y="180" width="720" height="40" as="geometry" />
        </mxCell>

        <!-- Hero Subtitle -->
        <mxCell id="hero-subtitle" value="A community-driven platform celebrating indigenous art from ancient rock paintings to contemporary installations" style="text;html=1;strokeColor=none;fillColor=none;align=center;verticalAlign=middle;whiteSpace=wrap;rounded=0;fontSize=14;" vertex="1" parent="1">
          <mxGeometry x="300" y="230" width="600" height="30" as="geometry" />
        </mxCell>

        <!-- Hero Buttons -->
        <mxCell id="btn-explore" value="Explore the Map" style="rounded=1;whiteSpace=wrap;html=1;fillColor=#d2691e;strokeColor=#d2691e;fontColor=#ffffff;fontStyle=1" vertex="1" parent="1">
          <mxGeometry x="400" y="290" width="160" height="40" as="geometry" />
        </mxCell>

        <mxCell id="btn-submit" value="Submit Art" style="rounded=1;whiteSpace=wrap;html=1;fillColor=#cd853f;strokeColor=#cd853f;fontColor=#ffffff;fontStyle=1" vertex="1" parent="1">
          <mxGeometry x="580" y="290" width="160" height="40" as="geometry" />
        </mxCell>

        <!-- Interactive Map Section -->
        <mxCell id="map-section" value="INTERACTIVE MAP SECTION" style="rounded=0;whiteSpace=wrap;html=1;fillColor=#ffe6cc;strokeColor=#d79b00;fontStyle=1" vertex="1" parent="1">
          <mxGeometry x="40" y="440" width="1120" height="440" as="geometry" />
        </mxCell>

        <!-- Map Title -->
        <mxCell id="map-title" value="Interactive Art Map" style="text;html=1;strokeColor=none;fillColor=none;align=center;verticalAlign=middle;whiteSpace=wrap;rounded=0;fontSize=24;fontStyle=1" vertex="1" parent="1">
          <mxGeometry x="440" y="460" width="320" height="30" as="geometry" />
        </mxCell>

        <!-- Map Subtitle -->
        <mxCell id="map-subtitle" value="Discover indigenous art locations across Australia. Click markers to learn more." style="text;html=1;strokeColor=none;fillColor=none;align=center;verticalAlign=middle;whiteSpace=wrap;rounded=0;fontSize=12;" vertex="1" parent="1">
          <mxGeometry x="340" y="495" width="520" height="20" as="geometry" />
        </mxCell>

        <!-- Map Container -->
        <mxCell id="map" value="[ LEAFLET MAP &#xa;&#xa;🗺️ Interactive Map of Australia&#xa;&#xa;Markers showing art locations ]" style="rounded=0;whiteSpace=wrap;html=1;fillColor=#e3f2fd;strokeColor=#1976d2;align=center;fontSize=14;" vertex="1" parent="1">
          <mxGeometry x="80" y="530" width="1040" height="280" as="geometry" />
        </mxCell>

        <!-- Map Legend -->
        <mxCell id="legend" value="Legend:&#xa;● Ancient Art  ● Contemporary  ● Protected Location" style="rounded=0;whiteSpace=wrap;html=1;fillColor=#ffffff;strokeColor=#666666;align=left;fontSize=11;" vertex="1" parent="1">
          <mxGeometry x="80" y="830" width="1040" height="40" as="geometry" />
        </mxCell>

        <!-- Featured Art Section -->
        <mxCell id="featured" value="FEATURED ART SECTION" style="rounded=0;whiteSpace=wrap;html=1;fillColor=#f8cecc;strokeColor=#b85450;fontStyle=1" vertex="1" parent="1">
          <mxGeometry x="40" y="920" width="1120" height="340" as="geometry" />
        </mxCell>

        <!-- Featured Title -->
        <mxCell id="featured-title" value="Recently Added Art" style="text;html=1;strokeColor=none;fillColor=none;align=center;verticalAlign=middle;whiteSpace=wrap;rounded=0;fontSize=24;fontStyle=1" vertex="1" parent="1">
          <mxGeometry x="440" y="940" width="320" height="30" as="geometry" />
        </mxCell>

        <!-- Art Cards Grid -->
        <mxCell id="card1" value="[ Image ]&#xa;&#xa;Art Title&#xa;Type | Period&#xa;Location" style="rounded=0;whiteSpace=wrap;html=1;fillColor=#ffffff;strokeColor=#666666;align=center;" vertex="1" parent="1">
          <mxGeometry x="80" y="990" width="250" height="240" as="geometry" />
        </mxCell>

        <mxCell id="card2" value="[ Image ]&#xa;&#xa;Art Title&#xa;Type | Period&#xa;Location" style="rounded=0;whiteSpace=wrap;html=1;fillColor=#ffffff;strokeColor=#666666;align=center;" vertex="1" parent="1">
          <mxGeometry x="360" y="990" width="250" height="240" as="geometry" />
        </mxCell>

        <mxCell id="card3" value="[ Image ]&#xa;&#xa;Art Title&#xa;Type | Period&#xa;Location" style="rounded=0;whiteSpace=wrap;html=1;fillColor=#ffffff;strokeColor=#666666;align=center;" vertex="1" parent="1">
          <mxGeometry x="640" y="990" width="250" height="240" as="geometry" />
        </mxCell>

        <mxCell id="card4" value="[ Image ]&#xa;&#xa;Art Title&#xa;Type | Period&#xa;Location" style="rounded=0;whiteSpace=wrap;html=1;fillColor=#ffffff;strokeColor=#666666;align=center;" vertex="1" parent="1">
          <mxGeometry x="920" y="990" width="200" height="240" as="geometry" />
        </mxCell>

        <!-- About Section -->
        <mxCell id="about" value="ABOUT PREVIEW SECTION" style="rounded=0;whiteSpace=wrap;html=1;fillColor=#d5e8d4;strokeColor=#82b366;fontStyle=1" vertex="1" parent="1">
          <mxGeometry x="40" y="1300" width="1120" height="180" as="geometry" />
        </mxCell>

        <!-- About Content -->
        <mxCell id="about-text" value="Our Mission&#xa;&#xa;The Indigenous Art Atlas is dedicated to&#xa;documenting, preserving, and celebrating&#xa;indigenous art across Australia..." style="rounded=0;whiteSpace=wrap;html=1;fillColor=#ffffff;strokeColor=#666666;align=left;verticalAlign=top;" vertex="1" parent="1">
          <mxGeometry x="80" y="1320" width="500" height="140" as="geometry" />
        </mxCell>

        <!-- Stats -->
        <mxCell id="stats" value="📊 142 Art Entries&#xa;🗺️ 7 States &amp; Territories&#xa;📅 20,000+ Years of History" style="rounded=0;whiteSpace=wrap;html=1;fillColor=#fff2cc;strokeColor=#d6b656;align=left;fontSize=14;fontStyle=1" vertex="1" parent="1">
          <mxGeometry x="620" y="1320" width="500" height="140" as="geometry" />
        </mxCell>

        <!-- Footer -->
        <mxCell id="footer" value="FOOTER&#xa;&#xa;Quick Links | About | Guidelines | Contact&#xa;Acknowledgment of Country&#xa;© 2024 Indigenous Art Atlas" style="rounded=0;whiteSpace=wrap;html=1;fillColor=#3e2723;strokeColor=#000000;fontColor=#ffffff;align=center;" vertex="1" parent="1">
          <mxGeometry x="40" y="1500" width="1120" height="60" as="geometry" />
        </mxCell>

        <!-- Annotations -->
        <mxCell id="note1" value="💡 Sticky header on scroll" style="text;html=1;strokeColor=#b85450;fillColor=#f8cecc;align=left;verticalAlign=middle;whiteSpace=wrap;rounded=0;fontSize=10;" vertex="1" parent="1">
          <mxGeometry x="1180" y="60" width="140" height="30" as="geometry" />
        </mxCell>

        <mxCell id="note2" value="💡 Hover effects on cards" style="text;html=1;strokeColor=#b85450;fillColor=#f8cecc;align=left;verticalAlign=middle;whiteSpace=wrap;rounded=0;fontSize=10;" vertex="1" parent="1">
          <mxGeometry x="1180" y="1100" width="140" height="30" as="geometry" />
        </mxCell>

      </root>
    </mxGraphModel>
  </diagram>
</mxfile>